<svg width="12.0034" height="12.0003" viewBox="0 0 12.0034 12.0003" fill="none" xmlns="http://www.w3.org/2000/svg">
<g transform="translate(-1222 -750)">
<rect x="1222" y="750" width="5.33333" height="1.33333" fill="black"></rect>
<rect x="1222" y="754" width="5.33333" height="1.33333" fill="black"></rect>
<rect x="1222" y="751.333" width="1.33333" height="2.66667" fill="black"></rect>
<rect x="1226" y="751.333" width="1.33333" height="2.66667" fill="black"></rect>
<rect x="1228.67" y="750" width="5.33333" height="1.33333" fill="black"></rect>
<rect x="1228.67" y="754" width="5.33333" height="1.33333" fill="black"></rect>
<rect x="1228.67" y="751.333" width="1.33333" height="2.66667" fill="black"></rect>
<rect x="1232.67" y="751.333" width="1.33333" height="2.66667" fill="black"></rect>
<rect x="1222" y="756.667" width="5.33333" height="1.33333" fill="black"></rect>
<rect x="1222" y="760.667" width="5.33333" height="1.33333" fill="black"></rect>
<rect x="1222" y="758" width="1.33333" height="2.66667" fill="black"></rect>
<rect x="1226" y="758" width="1.33333" height="2.66667" fill="black"></rect>
<rect x="1230" y="756.667" width="2.66667" height="1.33333" fill="black"></rect>
<rect x="1228.67" y="758" width="1.33333" height="2.66667" fill="black"></rect>
<rect x="1230" y="760.667" width="2.66667" height="1.33333" fill="black"></rect>
<rect x="1232.67" y="758" width="1.33333" height="2.66667" fill="black"></rect>
</g>
</svg>
