<svg width="1391.23" height="76.1378" viewBox="0 0 1391.23 76.1378" fill="none" xmlns="http://www.w3.org/2000/svg">
<g id="Group 50">
<path id="Vector" d="M23.9393 0.0406267C26.862 -0.031755 29.9414 0.0486094 32.8862 0.0282963C41.6499 -0.0323766 50.4891 0.138732 59.247 0C59.3277 1.66434 59.3365 4.22316 59.2647 5.89317C61.2153 5.89379 63.3628 5.85166 65.2974 5.93557C65.3701 7.69651 65.3533 10.1518 65.3009 11.9193C69.0398 11.9455 73.325 11.8023 76.9973 11.9633C77.0736 13.2476 77.0825 16.3166 77.008 17.5806C80.8 17.6478 85.0099 17.4714 88.7159 17.635C88.8073 19.2171 88.7487 21.9728 88.7133 23.6038C90.7162 23.6374 92.7555 23.5942 94.7495 23.6626C94.8693 25.0201 94.7752 28.2967 94.738 29.6547C93.2868 29.8454 90.5077 29.5343 89.0823 29.7484C88.2671 29.8707 89.092 34.3106 88.5811 35.2536C88.0045 35.526 72.7201 35.3926 70.9504 35.3904C64.0786 35.3042 57.0391 35.3736 50.1579 35.373L6.06382 35.3682C6.0192 34.2438 5.91728 30.6318 6.04776 29.6693C4.15927 29.7353 1.99412 29.667 0.0710316 29.681C0.0249059 28.1215 -0.119683 18.8468 0.213309 17.7844C0.602095 17.4477 4.99326 17.6494 6.06337 17.5358C6.02869 16.6156 5.92198 12.7238 6.18747 12.072C7.13091 11.6988 15.8933 12.0014 17.7174 11.9042C17.8242 10.7337 17.5436 6.64041 17.9505 6.09923C18.4284 5.75196 19.5588 5.90674 20.1704 5.90985C21.3828 5.92351 22.5954 5.9087 23.8072 5.86532C23.7157 5.11303 23.7031 0.613294 23.9393 0.0406267Z" fill="white"/>
<path id="Vector_2" d="M549.445 0.0406267C552.368 -0.031755 555.447 0.0486094 558.392 0.0282963C567.156 -0.0323766 575.995 0.138732 584.753 0C584.834 1.66434 584.842 4.22316 584.771 5.89317C586.721 5.89379 588.869 5.85166 590.803 5.93557C590.876 7.69651 590.859 10.1518 590.807 11.9193C594.546 11.9455 598.831 11.8023 602.503 11.9633C602.579 13.2476 602.588 16.3166 602.514 17.5806C606.306 17.6478 610.516 17.4714 614.222 17.635C614.313 19.2171 614.255 21.9728 614.219 23.6038C616.222 23.6374 618.261 23.5942 620.255 23.6626C620.375 25.0201 620.281 28.2967 620.244 29.6547C618.793 29.8454 616.014 29.5343 614.588 29.7484C613.773 29.8707 614.598 34.3106 614.087 35.2536C613.51 35.526 598.226 35.3926 596.456 35.3904C589.584 35.3042 582.545 35.3736 575.664 35.373L531.57 35.3682C531.525 34.2438 531.423 30.6318 531.554 29.6693C529.665 29.7353 527.5 29.667 525.577 29.681C525.531 28.1215 525.386 18.8468 525.719 17.7844C526.108 17.4477 530.499 17.6494 531.569 17.5358C531.535 16.6156 531.428 12.7238 531.693 12.072C532.637 11.6988 541.399 12.0014 543.223 11.9042C543.33 10.7337 543.049 6.64041 543.456 6.09923C543.934 5.75196 545.065 5.90674 545.676 5.90985C546.889 5.92351 548.101 5.9087 549.313 5.86532C549.222 5.11303 549.209 0.613294 549.445 0.0406267Z" fill="white"/>
<path id="Vector_3" d="M1074.95 0.0406267C1077.87 -0.031755 1080.95 0.0486094 1083.9 0.0282963C1092.66 -0.0323766 1101.5 0.138732 1110.26 0C1110.34 1.66434 1110.35 4.22316 1110.28 5.89317C1112.23 5.89379 1114.37 5.85166 1116.31 5.93557C1116.38 7.69651 1116.37 10.1518 1116.31 11.9193C1120.05 11.9455 1124.34 11.8023 1128.01 11.9633C1128.09 13.2476 1128.09 16.3166 1128.02 17.5806C1131.81 17.6478 1136.02 17.4714 1139.73 17.635C1139.82 19.2171 1139.76 21.9728 1139.72 23.6038C1141.73 23.6374 1143.77 23.5942 1145.76 23.6626C1145.88 25.0201 1145.79 28.2967 1145.75 29.6547C1144.3 29.8454 1141.52 29.5343 1140.09 29.7484C1139.28 29.8707 1140.1 34.3106 1139.59 35.2536C1139.02 35.526 1123.73 35.3926 1121.96 35.3904C1115.09 35.3042 1108.05 35.3736 1101.17 35.373L1057.08 35.3682C1057.03 34.2438 1056.93 30.6318 1057.06 29.6693C1055.17 29.7353 1053.01 29.667 1051.08 29.681C1051.04 28.1215 1050.89 18.8468 1051.23 17.7844C1051.61 17.4477 1056 17.6494 1057.08 17.5358C1057.04 16.6156 1056.93 12.7238 1057.2 12.072C1058.14 11.6988 1066.91 12.0014 1068.73 11.9042C1068.84 10.7337 1068.56 6.64041 1068.96 6.09923C1069.44 5.75196 1070.57 5.90674 1071.18 5.90985C1072.39 5.92351 1073.61 5.9087 1074.82 5.86532C1074.73 5.11303 1074.71 0.613294 1074.95 0.0406267Z" fill="white"/>
<path id="Vector_4" d="M269.347 40.7535C272.27 40.6811 275.35 40.7615 278.294 40.7412C287.058 40.6805 295.897 40.8516 304.655 40.7129C304.736 42.3772 304.745 44.936 304.673 46.6061C306.623 46.6067 308.771 46.5646 310.706 46.6485C310.778 48.4094 310.761 50.8647 310.709 52.6322C314.448 52.6584 318.733 52.5152 322.406 52.6762C322.482 53.9605 322.491 57.0295 322.416 58.2935C326.208 58.3607 330.418 58.1843 334.124 58.3479C334.215 59.93 334.157 62.6856 334.121 64.3167C336.124 64.3502 338.164 64.307 340.158 64.3755C340.277 65.7329 340.183 69.0096 340.146 70.3676C338.695 70.5583 335.916 70.2471 334.49 70.4613C333.675 70.5836 334.5 75.0235 333.989 75.9665C333.413 76.2389 318.128 76.1055 316.359 76.1033C309.487 76.0171 302.447 76.0865 295.566 76.0859L251.472 76.0811C251.427 74.9567 251.325 71.3447 251.456 70.3822C249.567 70.4481 247.402 70.3799 245.479 70.3939C245.433 68.8344 245.289 59.5597 245.622 58.4973C246.01 58.1606 250.401 58.3622 251.472 58.2487C251.437 57.3285 251.33 53.4367 251.596 52.7849C252.539 52.4117 261.301 52.7143 263.126 52.6171C263.232 51.4466 262.952 47.3533 263.359 46.8121C263.837 46.4648 264.967 46.6196 265.579 46.6227C266.791 46.6364 268.004 46.6216 269.215 46.5782C269.124 45.8259 269.111 41.3262 269.347 40.7535Z" fill="white"/>
<path id="Vector_5" d="M794.853 40.7535C797.776 40.6811 800.855 40.7615 803.8 40.7412C812.564 40.6805 821.403 40.8516 830.161 40.7129C830.242 42.3772 830.251 44.936 830.179 46.6061C832.129 46.6067 834.277 46.5646 836.211 46.6485C836.284 48.4094 836.267 50.8647 836.215 52.6322C839.954 52.6584 844.239 52.5152 847.911 52.6762C847.988 53.9605 847.997 57.0295 847.922 58.2935C851.714 58.3607 855.924 58.1843 859.63 58.3479C859.721 59.93 859.663 62.6856 859.627 64.3167C861.63 64.3502 863.67 64.307 865.664 64.3755C865.783 65.7329 865.689 69.0096 865.652 70.3676C864.201 70.5583 861.422 70.2471 859.996 70.4613C859.181 70.5836 860.006 75.0235 859.495 75.9665C858.919 76.2389 843.634 76.1055 841.865 76.1033C834.993 76.0171 827.953 76.0865 821.072 76.0859L776.978 76.0811C776.933 74.9567 776.831 71.3447 776.962 70.3822C775.073 70.4481 772.908 70.3799 770.985 70.3939C770.939 68.8344 770.794 59.5597 771.127 58.4973C771.516 58.1606 775.907 58.3622 776.977 58.2487C776.943 57.3285 776.836 53.4367 777.102 52.7849C778.045 52.4117 786.807 52.7143 788.631 52.6171C788.738 51.4466 788.458 47.3533 788.865 46.8121C789.342 46.4648 790.473 46.6196 791.084 46.6227C792.297 46.6364 793.509 46.6216 794.721 46.5782C794.63 45.8259 794.617 41.3262 794.853 40.7535Z" fill="white"/>
<path id="Vector_6" d="M1320.36 40.7535C1323.28 40.6811 1326.36 40.7615 1329.31 40.7412C1338.07 40.6805 1346.91 40.8516 1355.67 40.7129C1355.75 42.3772 1355.76 44.936 1355.68 46.6061C1357.64 46.6067 1359.78 46.5646 1361.72 46.6485C1361.79 48.4094 1361.77 50.8647 1361.72 52.6322C1365.46 52.6584 1369.74 52.5152 1373.42 52.6762C1373.49 53.9605 1373.5 57.0295 1373.43 58.2935C1377.22 58.3607 1381.43 58.1843 1385.14 58.3479C1385.23 59.93 1385.17 62.6856 1385.13 64.3167C1387.14 64.3502 1389.18 64.307 1391.17 64.3755C1391.29 65.7329 1391.2 69.0096 1391.16 70.3676C1389.71 70.5583 1386.93 70.2471 1385.5 70.4613C1384.69 70.5836 1385.51 75.0235 1385 75.9665C1384.42 76.2389 1369.14 76.1055 1367.37 76.1033C1360.5 76.0171 1353.46 76.0865 1346.58 76.0859L1302.48 76.0811C1302.44 74.9567 1302.34 71.3447 1302.47 70.3822C1300.58 70.4481 1298.41 70.3799 1296.49 70.3939C1296.44 68.8344 1296.3 59.5597 1296.63 58.4973C1297.02 58.1606 1301.41 58.3622 1302.48 58.2487C1302.45 57.3285 1302.34 53.4367 1302.61 52.7849C1303.55 52.4117 1312.31 52.7143 1314.14 52.6171C1314.24 51.4466 1313.96 47.3533 1314.37 46.8121C1314.85 46.4648 1315.98 46.6196 1316.59 46.6227C1317.8 46.6364 1319.02 46.6216 1320.23 46.5782C1320.14 45.8259 1320.12 41.3262 1320.36 40.7535Z" fill="white"/>
</g>
</svg>
